<svg id="visual" viewBox="0 0 960 540" width="960" height="540" xmlns="http://www.w3.org/2000/svg" xmlns:xlink="http://www.w3.org/1999/xlink" version="1.1"><path d="M0 325L16 326.3C32 327.7 64 330.3 96 331C128 331.7 160 330.3 192 326.8C224 323.3 256 317.7 288 319.7C320 321.7 352 331.3 384 334.5C416 337.7 448 334.3 480 328.8C512 323.3 544 315.7 576 318.7C608 321.7 640 335.3 672 338.2C704 341 736 333 768 331.2C800 329.3 832 333.7 864 335.7C896 337.7 928 337.3 944 337.2L960 337L960 541L944 541C928 541 896 541 864 541C832 541 800 541 768 541C736 541 704 541 672 541C640 541 608 541 576 541C544 541 512 541 480 541C448 541 416 541 384 541C352 541 320 541 288 541C256 541 224 541 192 541C160 541 128 541 96 541C64 541 32 541 16 541L0 541Z" fill="#fccb82"></path><path d="M0 383L16 378C32 373 64 363 96 357.5C128 352 160 351 192 352.7C224 354.3 256 358.7 288 357.5C320 356.3 352 349.7 384 349.7C416 349.7 448 356.3 480 360.8C512 365.3 544 367.7 576 366.7C608 365.7 640 361.3 672 358C704 354.7 736 352.3 768 354.3C800 356.3 832 362.7 864 364.8C896 367 928 365 944 364L960 363L960 541L944 541C928 541 896 541 864 541C832 541 800 541 768 541C736 541 704 541 672 541C640 541 608 541 576 541C544 541 512 541 480 541C448 541 416 541 384 541C352 541 320 541 288 541C256 541 224 541 192 541C160 541 128 541 96 541C64 541 32 541 16 541L0 541Z" fill="#fcc574"></path><path d="M0 416L16 412.7C32 409.3 64 402.7 96 402.7C128 402.7 160 409.3 192 410.8C224 412.3 256 408.7 288 403C320 397.3 352 389.7 384 387.8C416 386 448 390 480 394.8C512 399.7 544 405.3 576 405.5C608 405.7 640 400.3 672 397.2C704 394 736 393 768 396.5C800 400 832 408 864 412C896 416 928 416 944 416L960 416L960 541L944 541C928 541 896 541 864 541C832 541 800 541 768 541C736 541 704 541 672 541C640 541 608 541 576 541C544 541 512 541 480 541C448 541 416 541 384 541C352 541 320 541 288 541C256 541 224 541 192 541C160 541 128 541 96 541C64 541 32 541 16 541L0 541Z" fill="#fcc067"></path><path d="M0 414L16 416.5C32 419 64 424 96 428C128 432 160 435 192 434.8C224 434.7 256 431.3 288 432.8C320 434.3 352 440.7 384 443.2C416 445.7 448 444.3 480 440.5C512 436.7 544 430.3 576 428C608 425.7 640 427.3 672 426.7C704 426 736 423 768 421.5C800 420 832 420 864 419C896 418 928 416 944 415L960 414L960 541L944 541C928 541 896 541 864 541C832 541 800 541 768 541C736 541 704 541 672 541C640 541 608 541 576 541C544 541 512 541 480 541C448 541 416 541 384 541C352 541 320 541 288 541C256 541 224 541 192 541C160 541 128 541 96 541C64 541 32 541 16 541L0 541Z" fill="#fcba59"></path><path d="M0 453L16 453.8C32 454.7 64 456.3 96 460.3C128 464.3 160 470.7 192 472.3C224 474 256 471 288 468.3C320 465.7 352 463.3 384 462C416 460.7 448 460.3 480 462.3C512 464.3 544 468.7 576 469.5C608 470.3 640 467.7 672 465.8C704 464 736 463 768 464.3C800 465.7 832 469.3 864 472.7C896 476 928 479 944 480.5L960 482L960 541L944 541C928 541 896 541 864 541C832 541 800 541 768 541C736 541 704 541 672 541C640 541 608 541 576 541C544 541 512 541 480 541C448 541 416 541 384 541C352 541 320 541 288 541C256 541 224 541 192 541C160 541 128 541 96 541C64 541 32 541 16 541L0 541Z" fill="#fbb44b"></path><path d="M0 512L16 509.8C32 507.7 64 503.3 96 499.5C128 495.7 160 492.3 192 491.3C224 490.3 256 491.7 288 493C320 494.3 352 495.7 384 497.7C416 499.7 448 502.3 480 501.8C512 501.3 544 497.7 576 497.3C608 497 640 500 672 499.3C704 498.7 736 494.3 768 495.7C800 497 832 504 864 503.3C896 502.7 928 494.3 944 490.2L960 486L960 541L944 541C928 541 896 541 864 541C832 541 800 541 768 541C736 541 704 541 672 541C640 541 608 541 576 541C544 541 512 541 480 541C448 541 416 541 384 541C352 541 320 541 288 541C256 541 224 541 192 541C160 541 128 541 96 541C64 541 32 541 16 541L0 541Z" fill="#fbae3c"></path></svg>