<svg id="visual" viewBox="0 0 960 150" width="960" height="150" xmlns="http://www.w3.org/2000/svg" xmlns:xlink="http://www.w3.org/1999/xlink" version="1.1"><path d="M0 102L14.5 105.2C29 108.3 58 114.7 87.2 113.7C116.3 112.7 145.7 104.3 174.8 99.3C204 94.3 233 92.7 262 94.7C291 96.7 320 102.3 349 108.2C378 114 407 120 436.2 121.2C465.3 122.3 494.7 118.7 523.8 114.7C553 110.7 582 106.3 611 107C640 107.7 669 113.3 698 116.8C727 120.3 756 121.7 785.2 121.3C814.3 121 843.7 119 872.8 115.8C902 112.7 931 108.3 945.5 106.2L960 104" fill="none" stroke="#FBAE3C" stroke-width="40" stroke-linecap="round" stroke-linejoin="miter"></path></svg>